# xmcd CD database file
# Copyright (C) 1996 Ti Kan
#
# Track frame offsets:
#  187
#  15570
#  33867
#  58917
#  75167
#  89382
#  110835
#  135412
#
# Disc length: 2025 seconds
#
# Revision: 2
# Processed by: cddbd v1.4PL0 Copyright (c) Steve Scherf et al.
# Submitted via: Gronk 1.4
#
DISCID=5907e708
DTITLE=Albert Lee - Speechless
DYEAR=1900
DGENRE=country
TTITLE0=T-Bird To Vegas
TTITLE1=Bullish Boogie
TTITLE2=Seventeenth Summer
TTITLE3=Salt Creek
TTITLE4=Arkansas Traveler
TTITLE5=Cannonball
TTITLE6=Romany Rye
TTITLE7=Erin
EXTD=
EXTT0=
EXTT1=
EXTT2=
EXTT3=
EXTT4=
EXTT5=
EXTT6=
EXTT7=
PLAYORDER=
